<?xml version="1.0" standalone="no"?>
<!DOCTYPE svg PUBLIC "-//W3C//DTD SVG 20010904//EN"
 "http://www.w3.org/TR/2001/REC-SVG-20010904/DTD/svg10.dtd">
<svg version="1.0" xmlns="http://www.w3.org/2000/svg"
 width="512.000000pt" height="512.000000pt" viewBox="0 0 512.000000 512.000000"
 preserveAspectRatio="xMidYMid meet">
<metadata>
Created by potrace 1.11, written by Peter Selinger 2001-2013
</metadata>
<g transform="translate(0.000000,512.000000) scale(0.100000,-0.100000)"
fill="#000000" stroke="none">
<path d="M1187 3575 c-15 -9 -32 -27 -37 -41 -6 -15 -10 -389 -10 -953 0 -852
1 -930 17 -942 11 -10 46 -14 113 -14 67 0 102 4 113 14 15 12 17 55 17 439
l0 425 139 -5 c132 -4 142 -6 205 -37 124 -61 165 -128 320 -527 76 -193 113
-275 131 -291 23 -20 37 -23 119 -23 77 0 98 3 117 19 22 17 22 21 10 62 -22
75 -221 559 -264 643 -43 83 -130 187 -179 212 -15 8 -28 18 -27 22 0 4 36 24
80 45 180 87 278 242 279 444 0 152 -40 256 -138 352 -75 74 -142 111 -260
143 -69 19 -110 21 -397 25 -277 3 -324 1 -348 -12z m668 -233 c81 -30 125
-67 160 -137 27 -55 30 -69 30 -160 0 -87 -3 -106 -25 -148 -27 -55 -81 -107
-137 -135 -68 -34 -142 -45 -313 -46 l-165 -1 -3 329 -2 328 197 -4 c172 -4
206 -7 258 -26z"/>
<path d="M2987 3575 c-15 -9 -32 -27 -37 -41 -6 -15 -10 -382 -10 -935 l0
-911 29 -29 29 -29 334 0 c183 0 361 5 396 10 143 24 263 82 352 170 104 104
150 221 150 380 0 143 -43 253 -138 352 -52 54 -172 128 -208 128 -22 0 -16
16 9 27 36 18 105 82 138 129 67 98 94 250 66 380 -40 188 -152 301 -354 356
-70 19 -110 21 -403 25 -281 3 -329 1 -353 -12z m683 -232 c129 -59 188 -184
160 -342 -15 -84 -39 -130 -95 -179 -74 -65 -112 -74 -337 -79 l-198 -5 0 317
0 317 213 -4 c188 -4 217 -6 257 -25z m9 -828 c180 -43 272 -156 272 -335 0
-109 -26 -175 -97 -239 -89 -81 -134 -91 -420 -91 l-234 0 0 340 0 340 208 0
c149 0 225 -5 271 -15z"/>
</g>
</svg>
